<?xml version="1.0" encoding="UTF-8"?>
<svg width="1200" height="1200" version="1.1" viewBox="0 0 317.5 317.5" xmlns="http://www.w3.org/2000/svg">
 <g transform="translate(0 -244.08)">
  <path d="m158.75 244.08a158.75 158.75 0 0 0-158.75 158.75 158.75 158.75 0 0 0 158.75 158.75 158.75 158.75 0 0 0 158.75-158.75 158.75 158.75 0 0 0-158.75-158.75zm0 26.458a132.29 132.29 0 0 1 132.29 132.29 132.29 132.29 0 0 1-132.29 132.29 132.29 132.29 0 0 1-132.29-132.29 132.29 132.29 0 0 1 132.29-132.29z" fill="#0066eb"/>
  <image x="39.688" y="283.77" width="238.13" height="238.13" preserveAspectRatio="none" href="https://upload.wikimedia.org/wikipedia/commons/thumb/8/84/Coat_of_arms_of_the_Philippines.svg/1200px-Coat_of_arms_of_the_Philippines.svg.png"/>
 </g>
</svg>